External Loads File
version=1
nRows=47
nColumns=13
Range=5.000000e-03-10 seconds
endheader
time 	forceRightX 	forceRightY 	forceRightZ 	pointRightX 	pointRightY 	pointRightZ 	forceLeftX 	forceLeftY 	forceLeftZ 	pointLeftX 	pointLeftY 	pointLeftZ 		
0.005000 24.884316 107.107170 -0.000000 0.343235 0.421271 -0.162439 22.376555 142.064078 -0.000000 0.066850 0.230010 -0.397948
0.010000 25.645881 107.476061 -0.000000 0.343303 0.421226 -0.162453 19.923634 140.218523 -0.000000 0.066829 0.230074 -0.397951
0.015000 26.313564 107.790880 -0.000000 0.343353 0.421177 -0.162452 17.762947 138.555118 -0.000000 0.066810 0.230116 -0.397941
0.020000 26.882459 108.004541 -0.000000 0.343548 0.421091 -0.162562 16.132075 137.181863 -0.000000 0.066790 0.230173 -0.397952
0.025000 27.099689 108.147280 -0.000000 0.343511 0.421532 -0.162532 14.772754 136.145404 -0.000000 0.066744 0.230217 -0.397991
0.030000 27.260803 108.130158 -0.000000 0.343543 0.421562 -0.162528 13.987463 135.350559 -0.000000 0.066724 0.230246 -0.397996
0.035000 27.288030 107.978212 -0.000000 0.343566 0.421557 -0.162520 13.567324 134.760521 -0.000000 0.066694 0.230295 -0.398007
0.040000 27.198003 107.715362 -0.000000 0.343602 0.421577 -0.162531 13.437741 134.359926 -0.000000 0.066673 0.230325 -0.398005
0.045000 27.048070 107.370264 -0.000000 0.343628 0.421561 -0.162516 13.588595 134.149114 -0.000000 0.066666 0.230327 -0.398011
0.050000 26.886857 106.976896 -0.000000 0.343665 0.421555 -0.162524 14.001385 134.122354 -0.000000 0.066651 0.230350 -0.398017
0.055000 26.711566 106.577587 -0.000000 0.343679 0.421563 -0.162515 14.572734 134.251188 -0.000000 0.066665 0.230343 -0.398022
0.060000 26.559481 106.200908 -0.000000 0.343694 0.421591 -0.162521 15.204554 134.458133 -0.000000 0.066667 0.230344 -0.398020
0.065000 26.450782 105.877220 -0.000000 0.343704 0.421570 -0.162514 15.757654 134.639160 -0.000000 0.066677 0.230331 -0.398019
0.070000 26.360018 105.636017 -0.000000 0.343693 0.421611 -0.162495 16.094240 134.718487 -0.000000 0.066694 0.230320 -0.398018
0.075000 26.289828 105.474967 -0.000000 0.343686 0.421654 -0.162494 16.219973 134.674574 -0.000000 0.066728 0.230284 -0.398027
0.080000 26.245510 105.367141 -0.000000 0.343683 0.421691 -0.162505 16.206619 134.527725 -0.000000 0.066739 0.230261 -0.398028
0.085000 26.198426 105.286330 -0.000000 0.343676 0.421716 -0.162503 16.059936 134.303443 -0.000000 0.066775 0.230211 -0.398020
0.090000 26.161040 105.204986 -0.000000 0.343676 0.421768 -0.162513 15.784667 134.007359 -0.000000 0.066799 0.230176 -0.398014
0.095000 26.132078 105.107633 -0.000000 0.343648 0.421815 -0.162523 15.361859 133.657552 -0.000000 0.066839 0.230138 -0.398008
0.100000 26.117784 104.980200 -0.000000 0.343641 0.421882 -0.162512 14.821877 133.293989 -0.000000 0.066876 0.230075 -0.398007
0.105000 26.136778 104.818638 -0.000000 0.343606 0.421924 -0.162518 14.225718 132.953351 -0.000000 0.066918 0.230012 -0.398006
0.110000 26.200739 104.638995 -0.000000 0.343593 0.421989 -0.162517 13.609028 132.646031 -0.000000 0.066961 0.229939 -0.398006
0.115000 26.318027 104.460284 -0.000000 0.343557 0.422062 -0.162514 13.004659 132.354888 -0.000000 0.067002 0.229892 -0.398006
0.120000 26.443032 104.304162 -0.000000 0.343529 0.422163 -0.162520 12.392135 132.049097 -0.000000 0.067044 0.229780 -0.397996
0.125000 26.565081 104.178595 -0.000000 0.343490 0.422275 -0.162532 11.815359 131.696224 -0.000000 0.067091 0.229707 -0.398002
0.130000 26.651555 104.098762 -0.000000 0.343450 0.422359 -0.162521 11.331544 131.311450 -0.000000 0.067138 0.229627 -0.398010
0.135000 26.670410 104.068393 -0.000000 0.343406 0.422458 -0.162523 11.014563 130.950470 -0.000000 0.067184 0.229535 -0.398008
0.140000 26.603093 104.059851 -0.000000 0.343370 0.422554 -0.162525 10.891834 130.644070 -0.000000 0.067231 0.229434 -0.398015
0.145000 26.424064 104.033109 -0.000000 0.343324 0.422668 -0.162535 10.885640 130.372946 -0.000000 0.067289 0.229351 -0.398019
0.150000 26.131732 103.959392 -0.000000 0.343294 0.422773 -0.162533 10.906637 130.114457 -0.000000 0.067344 0.229212 -0.398018
0.155000 25.764258 103.827552 -0.000000 0.343230 0.422880 -0.162513 10.947376 129.887210 -0.000000 0.067398 0.229094 -0.398017
0.160000 25.358219 103.645746 -0.000000 0.343162 0.422996 -0.162506 11.044932 129.740115 -0.000000 0.067454 0.228962 -0.398014
0.165000 24.974738 103.424542 -0.000000 0.343117 0.423104 -0.162513 11.273775 129.710971 -0.000000 0.067519 0.228856 -0.398009
0.170000 24.629889 103.183972 -0.000000 0.343064 0.423212 -0.162528 11.625838 129.815286 -0.000000 0.067584 0.228705 -0.398008
0.175000 24.350637 102.937459 -0.000000 0.343002 0.423388 -0.162515 12.060898 130.028355 -0.000000 0.067656 0.228570 -0.398016
0.180000 24.184462 102.694321 -0.000000 0.342939 0.423527 -0.162508 12.513317 130.274204 -0.000000 0.067720 0.228442 -0.398012
0.185000 24.124977 102.476216 -0.000000 0.342881 0.423679 -0.162502 12.858321 130.469816 -0.000000 0.067772 0.228316 -0.398026
0.190000 24.170538 102.297970 -0.000000 0.342824 0.423812 -0.162491 13.066423 130.579060 -0.000000 0.067838 0.228188 -0.398025
0.195000 24.309049 102.173056 -0.000000 0.342759 0.423936 -0.162501 13.161744 130.612123 -0.000000 0.067906 0.228058 -0.398025
0.200000 24.524333 102.116759 -0.000000 0.342692 0.424087 -0.162502 13.147385 130.573957 -0.000000 0.067975 0.227933 -0.398025
0.205000 24.801028 102.132452 -0.000000 0.342633 0.424227 -0.162510 13.017452 130.455222 -0.000000 0.068054 0.227792 -0.398038
0.210000 25.098729 102.197803 -0.000000 0.342550 0.424372 -0.162510 12.799476 130.272745 -0.000000 0.068122 0.227662 -0.398048
0.215000 25.362050 102.275380 -0.000000 0.342475 0.424524 -0.162508 12.569374 130.088723 -0.000000 0.068200 0.227507 -0.398053
0.220000 25.574555 102.337918 -0.000000 0.342402 0.424687 -0.162530 12.433193 129.978032 -0.000000 0.068278 0.227355 -0.398056
0.225000 25.743637 102.381358 -0.000000 0.342328 0.424868 -0.162523 12.449223 129.980483 -0.000000 0.068350 0.227224 -0.398044
0.230000 25.875428 102.408614 -0.000000 0.342239 0.425001 -0.162526 12.596220 130.070338 -0.000000 0.068429 0.227058 -0.398049
0.235000 25.965469 102.423820 -0.000000 0.342154 0.425147 -0.162544 12.773328 130.166805 -0.000000 0.068515 0.226869 -0.398052
